<?xml version="1.0" encoding="utf-8"?>
<!-- Generator: Adobe Illustrator 15.0.0, SVG Export Plug-In  -->
<!DOCTYPE svg PUBLIC "-//W3C//DTD SVG 1.1//EN" "http://www.w3.org/Graphics/SVG/1.1/DTD/svg11.dtd" [
	<!ENTITY ns_flows "http://ns.adobe.com/Flows/1.0/">
]>
<svg version="1.1"
	 xmlns="http://www.w3.org/2000/svg" xmlns:xlink="http://www.w3.org/1999/xlink" xmlns:a="http://ns.adobe.com/AdobeSVGViewerExtensions/3.0/"
	 x="0px" y="0px" width="159px" height="200px" viewBox="0 0 159 200" enable-background="new 0 0 159 200" xml:space="preserve">
<defs>
</defs>
<path fill="#518EF8" d="M144.051,54.476v131.603c0,7.077-5.741,12.813-12.813,12.813H12.813C5.735,198.892,0,193.156,0,186.079
	V12.813C0,5.735,5.735,0,12.813,0h76.763L144.051,54.476z"/>
<rect x="35.191" y="88.156" fill="#FFFFFF" width="73.663" height="8.186"/>
<rect x="35.191" y="106.437" fill="#FFFFFF" width="73.663" height="8.186"/>
<rect x="35.191" y="124.717" fill="#FFFFFF" width="73.663" height="8.185"/>
<rect x="35.191" y="142.997" fill="#FFFFFF" width="52.386" height="8.186"/>
<polygon fill="#3A5BBC" points="97.007,53.292 144.051,72.673 144.051,54.476 117.379,46.601 "/>
<path fill="#ACD1FC" d="M144.051,54.476h-41.663c-7.078,0-12.813-5.735-12.813-12.813V0L144.051,54.476z"/>
<circle fill="#FF943E" cx="128.647" cy="169.23" r="30.77"/>
<path fill="#FFFFFF" d="M133.426,169.23l10.47-10.469c0.25-0.252,0.25-0.659,0-0.91l-3.868-3.869
	c-0.121-0.12-0.285-0.188-0.455-0.188c-0.171,0-0.335,0.068-0.455,0.188l-10.47,10.47l-10.469-10.47
	c-0.242-0.241-0.669-0.241-0.91,0l-3.869,3.869c-0.25,0.251-0.25,0.658,0,0.91l10.47,10.469l-10.47,10.469
	c-0.25,0.251-0.25,0.659,0,0.911l3.869,3.867c0.12,0.121,0.284,0.189,0.455,0.189c0.17,0,0.334-0.068,0.455-0.189l10.469-10.469
	l10.47,10.469c0.12,0.121,0.284,0.189,0.455,0.189c0.17,0,0.334-0.068,0.455-0.189l3.868-3.867c0.251-0.252,0.251-0.66,0-0.911
	L133.426,169.23z"/>
</svg>
