<?xml version="1.0" encoding="utf-8"?>
<!-- Generator: Adobe Illustrator 15.0.0, SVG Export Plug-In  -->
<!DOCTYPE svg PUBLIC "-//W3C//DTD SVG 1.1//EN" "http://www.w3.org/Graphics/SVG/1.1/DTD/svg11.dtd" [
	<!ENTITY ns_flows "http://ns.adobe.com/Flows/1.0/">
]>
<svg version="1.1"
	 xmlns="http://www.w3.org/2000/svg" xmlns:xlink="http://www.w3.org/1999/xlink" xmlns:a="http://ns.adobe.com/AdobeSVGViewerExtensions/3.0/"
	 x="0px" y="0px" width="13px" height="19px" viewBox="0 0 13 19" enable-background="new 0 0 13 19" xml:space="preserve">
<defs>
</defs>
<path fill="#080707" d="M12.78,4.729c-0.067-0.253-0.205-0.524-0.307-0.76C11.257,1.047,8.601,0,6.456,0
	C3.584,0,0.422,1.925,0,5.894v0.811c0,0.034,0.012,0.338,0.028,0.49c0.237,1.891,1.729,3.902,2.844,5.792
	C4.071,15.014,5.315,17.008,6.548,19c0.76-1.301,1.518-2.617,2.26-3.885c0.203-0.371,0.438-0.743,0.641-1.098
	c0.135-0.236,0.393-0.473,0.511-0.692c1.199-2.195,3.13-4.408,3.13-6.586V5.844C13.089,5.607,12.796,4.78,12.78,4.729z M6.509,8.799
	c-0.844,0-1.768-0.422-2.224-1.587C4.217,7.026,4.222,6.654,4.222,6.62V6.097c0-1.486,1.262-2.162,2.359-2.162
	c1.351,0,2.396,1.081,2.396,2.432C8.978,7.719,7.86,8.799,6.509,8.799z"/>
</svg>
