<?xml version="1.0" encoding="utf-8"?>
<!-- Generator: Adobe Illustrator 15.0.0, SVG Export Plug-In  -->
<!DOCTYPE svg PUBLIC "-//W3C//DTD SVG 1.1//EN" "http://www.w3.org/Graphics/SVG/1.1/DTD/svg11.dtd" [
	<!ENTITY ns_flows "http://ns.adobe.com/Flows/1.0/">
]>
<svg version="1.1"
	 xmlns="http://www.w3.org/2000/svg" xmlns:xlink="http://www.w3.org/1999/xlink" xmlns:a="http://ns.adobe.com/AdobeSVGViewerExtensions/3.0/"
	 x="0px" y="0px" width="512px" height="512px" viewBox="0 0 512 512" enable-background="new 0 0 512 512" xml:space="preserve">
<defs>
</defs>
<circle fill="#4D9DE0" cx="256" cy="254.968" r="17.067"/>
<path fill="#4D9DE0" d="M256,0C114.842,0,0,114.842,0,256s114.842,256,256,256s256-114.842,256-256S397.158,0,256,0z
	 M247.467,67.234c0-4.719,3.823-8.534,8.533-8.534c4.711,0,8.533,3.814,8.533,8.534v8.533c0,4.719-3.822,8.533-8.533,8.533
	c-4.71,0-8.533-3.814-8.533-8.533V67.234z M76.8,263.501h-8.533c-4.71,0-8.533-3.814-8.533-8.534c0-4.719,3.823-8.533,8.533-8.533
	H76.8c4.71,0,8.534,3.814,8.534,8.533C85.333,259.687,81.51,263.501,76.8,263.501z M135.322,387.721l-6.033,6.033
	c-1.664,1.664-3.849,2.5-6.033,2.5s-4.369-0.836-6.033-2.5c-3.337-3.337-3.337-8.73,0-12.066l6.033-6.033
	c3.336-3.336,8.729-3.336,12.066,0C138.658,378.991,138.658,384.384,135.322,387.721z M135.322,134.28
	c-1.664,1.664-3.849,2.5-6.033,2.5s-4.369-0.836-6.033-2.5l-6.033-6.033c-3.337-3.336-3.337-8.729,0-12.066
	c3.336-3.336,8.729-3.336,12.066,0l6.033,6.033C138.658,125.551,138.658,130.953,135.322,134.28z M264.533,442.701
	c0,4.719-3.822,8.533-8.533,8.533c-4.71,0-8.533-3.814-8.533-8.533v-8.533c0-4.72,3.823-8.534,8.533-8.534
	c4.711,0,8.533,3.814,8.533,8.534V442.701z M256,289.101c-15.855,0-29.107-10.923-32.921-25.6h-60.945
	c-4.71,0-8.533-3.814-8.533-8.534c0-4.719,3.823-8.533,8.533-8.533h60.945c3.106-11.938,12.45-21.282,24.388-24.388v-86.545
	c0-4.719,3.823-8.534,8.533-8.534c4.711,0,8.533,3.814,8.533,8.534v86.545c14.678,3.814,25.6,17.058,25.6,32.921
	C290.133,273.792,274.824,289.101,256,289.101z M394.777,393.754c-1.664,1.664-3.849,2.5-6.033,2.5s-4.369-0.836-6.032-2.5
	l-6.033-6.033c-3.337-3.337-3.337-8.729,0-12.066c3.336-3.336,8.729-3.336,12.065,0l6.033,6.033
	C398.114,385.016,398.114,390.417,394.777,393.754z M394.777,128.248l-6.033,6.033c-1.664,1.664-3.848,2.5-6.032,2.5
	s-4.369-0.836-6.033-2.5c-3.337-3.336-3.337-8.729,0-12.066l6.033-6.033c3.336-3.336,8.729-3.336,12.065,0
	C398.114,119.518,398.114,124.919,394.777,128.248z M443.733,263.501H435.2c-4.711,0-8.533-3.814-8.533-8.534
	c0-4.719,3.822-8.533,8.533-8.533h8.533c4.71,0,8.533,3.814,8.533,8.533C452.267,259.687,448.443,263.501,443.733,263.501z"/>
</svg>
