<?xml version="1.0" encoding="utf-8"?>
<!-- Generator: Adobe Illustrator 15.0.0, SVG Export Plug-In  -->
<!DOCTYPE svg PUBLIC "-//W3C//DTD SVG 1.1//EN" "http://www.w3.org/Graphics/SVG/1.1/DTD/svg11.dtd" [
	<!ENTITY ns_flows "http://ns.adobe.com/Flows/1.0/">
]>
<svg version="1.1"
	 xmlns="http://www.w3.org/2000/svg" xmlns:xlink="http://www.w3.org/1999/xlink" xmlns:a="http://ns.adobe.com/AdobeSVGViewerExtensions/3.0/"
	 x="0px" y="0px" width="12px" height="27px" viewBox="0 0 12 27" enable-background="new 0 0 12 27" xml:space="preserve">
<defs>
</defs>
<path fill="#737474" d="M11.191,7.811c-0.455,0-0.822,0.362-0.822,0.828v12.236c0,1.249-0.44,2.272-1.292,3.146
	c-0.853,0.873-1.866,1.324-3.099,1.324c-1.205,0-2.233-0.436-3.084-1.31c-0.852-0.873-1.278-1.926-1.278-3.16v-4.62v-2.469v-6.08
	v-2.92v-0.03v-0.03c0-0.828,0.297-1.546,0.867-2.137C3.059,1.991,3.76,1.67,4.597,1.67s1.539,0.32,2.115,0.918
	c0.569,0.591,0.866,1.31,0.866,2.137v0.03v0.06v13.65c0,0.857-0.646,1.521-1.482,1.521c-0.808,0-1.469-0.692-1.469-1.521v-7.149
	c0-0.466-0.353-0.828-0.808-0.828c-0.455,0-0.808,0.361-0.808,0.828v7.149c0,0.888,0.294,1.641,0.896,2.258s1.322,0.918,2.189,0.918
	c0.866,0,1.594-0.309,2.203-0.918c0.595-0.595,0.896-1.34,0.896-2.258V4.756v-0.03c0-1.294-0.459-2.404-1.351-3.326
	C6.943,0.47,5.86,0,4.597,0S2.25,0.47,1.351,1.399C0.459,2.321,0,3.431,0,4.726v0.03v2.95v6.08v2.469v4.62
	c0,1.7,0.587,3.146,1.748,4.334C2.908,26.398,4.318,27,5.978,27c1.66,0,3.099-0.572,4.274-1.775C11.427,24.02,12,22.545,12,20.875
	V8.639C12,8.172,11.647,7.811,11.191,7.811z"/>
</svg>
