<?xml version="1.0" encoding="utf-8"?>
<!-- Generator: Adobe Illustrator 15.0.0, SVG Export Plug-In  -->
<!DOCTYPE svg PUBLIC "-//W3C//DTD SVG 1.1//EN" "http://www.w3.org/Graphics/SVG/1.1/DTD/svg11.dtd" [
	<!ENTITY ns_flows "http://ns.adobe.com/Flows/1.0/">
]>
<svg version="1.1"
	 xmlns="http://www.w3.org/2000/svg" xmlns:xlink="http://www.w3.org/1999/xlink" xmlns:a="http://ns.adobe.com/AdobeSVGViewerExtensions/3.0/"
	 x="0px" y="0px" width="444px" height="529px" viewBox="0 0 444 529" enable-background="new 0 0 444 529" xml:space="preserve">
<defs>
</defs>
<path fill="#A6CDED" d="M6.149,467.102c6.571,6.571,16.655,8.101,24.88,3.761l65.856-34.695l7.604,73.916
	c0.724,7.108,4.959,13.184,11.056,16.428c1.818,0.972,3.781,1.674,5.889,2.087c9.113,1.798,18.329-2.563,22.71-10.725
	l77.738-144.917l77.717,144.917c4.381,8.162,13.598,12.522,22.71,10.725c2.108-0.413,4.071-1.115,5.89-2.087
	c6.075-3.244,10.332-9.319,11.056-16.428l7.625-73.916l65.856,34.695c8.203,4.34,18.287,2.811,24.858-3.761
	c6.53-6.571,8.018-16.635,3.637-24.797L351.59,275.132c24.198-29.095,38.745-66.435,38.745-107.102
	C390.335,75.373,314.767,0,221.882,0C128.977,0,53.408,75.373,53.408,168.03c0,40.667,14.548,78.007,38.745,107.102L2.512,442.305
	C-1.889,450.467-0.401,460.531,6.149,467.102z"/>
<circle fill="#D2E7F7" cx="221.864" cy="165.104" r="106.06"/>
</svg>
