<?xml version="1.0" encoding="utf-8"?>
<!-- Generator: Adobe Illustrator 15.0.0, SVG Export Plug-In  -->
<!DOCTYPE svg PUBLIC "-//W3C//DTD SVG 1.1//EN" "http://www.w3.org/Graphics/SVG/1.1/DTD/svg11.dtd" [
	<!ENTITY ns_flows "http://ns.adobe.com/Flows/1.0/">
]>
<svg version="1.1"
	 xmlns="http://www.w3.org/2000/svg" xmlns:xlink="http://www.w3.org/1999/xlink" xmlns:a="http://ns.adobe.com/AdobeSVGViewerExtensions/3.0/"
	 x="0px" y="0px" width="48px" height="42px" viewBox="0 0 48 42" enable-background="new 0 0 48 42" xml:space="preserve">
<defs>
</defs>
<path fill="none" stroke="#F48B20" stroke-width="3" stroke-miterlimit="10" d="M39.913,3.089C38.093,2.08,36.003,1.5,33.775,1.5
	c-3.934,0-7.455,1.802-9.78,4.628C21.659,3.302,18.141,1.5,14.203,1.5c-2.224,0-4.309,0.58-6.134,1.589
	C4.153,5.271,1.5,9.466,1.5,14.287c0,1.38,0.224,2.703,0.628,3.942c2.18,9.86,21.867,22.294,21.867,22.294
	s19.676-12.435,21.859-22.294c0.404-1.239,0.628-2.564,0.628-3.942C46.482,9.467,43.829,5.274,39.913,3.089z"/>
</svg>
