<svg id="capsul" xmlns="http://www.w3.org/2000/svg" width="62" height="56" viewBox="0 0 62 56">
  <defs>
    <style>
      .cls-1 {
        fill: #737373;
      }

      .cls-1, .cls-2 {
        fill-rule: evenodd;
      }

      .cls-2 {
        fill: #304770;
      }
    </style>
  </defs>
  <path id="Forma_1_copy_5" data-name="Forma 1 copy 5" class="cls-1" d="M50.455,32.916h-19.5L28.1,35.77h5.461V53.146h-13.3A8.7,8.7,0,0,1,11.843,46.6c-0.1,0-.206.007-0.31,0.007a13.924,13.924,0,0,1-2.666-.259A11.562,11.562,0,0,0,20.254,56h30.2A11.542,11.542,0,1,0,50.455,32.916Zm-9.4-29.59a11.579,11.579,0,0,0-16.328,0L3.369,24.673A11.544,11.544,0,0,0,19.7,41L41.052,19.648A11.568,11.568,0,0,0,41.051,3.326ZM17.679,38.977A8.689,8.689,0,0,1,5.388,26.691l9.406-9.4L27.085,29.574ZM39.127,17.633A8.673,8.673,0,0,0,26.839,5.39L14.529,17.659,26.816,29.9ZM50.018,52.585a8.826,8.826,0,0,0,9-8.666,8.6,8.6,0,0,0-2.6-6.193,9.025,9.025,0,0,0-6.308-2.62l-13.7-.113-0.091,17.48Z"/>
  <path id="Forma_1_copy_12" data-name="Forma 1 copy 12" class="cls-1" d="M49.013,31.753H30.454L27.737,34.5h5.2V53.25H20.275c-3.854,0-9.092-2.686-8-8.305-0.1,0-.2.007-0.3,0.007A13.087,13.087,0,0,1,9.438,44.7,11.045,11.045,0,0,0,20.274,54H49.013A11.124,11.124,0,0,0,49.013,31.753ZM40.065,3.235a10.92,10.92,0,0,0-15.538,0L4.206,23.808a11.251,11.251,0,0,0,0,15.731,10.906,10.906,0,0,0,15.538,0L40.066,18.966A11.114,11.114,0,0,0,43.272,11.1,11.112,11.112,0,0,0,40.065,3.235ZM17.824,37.594a8.208,8.208,0,0,1-11.7,0,8.475,8.475,0,0,1,0-11.841l8.951-9.062,11.7,11.841Zm20.41-20.57a8.407,8.407,0,0,0,0-11.8,8.243,8.243,0,0,0-11.693,0L14.826,17.048l11.693,11.8ZM49,52.585c4.937,0.04,9.973-3.847,10-8.666,0.012-2.323-1.911-4.523-3.6-6.193a9.025,9.025,0,0,0-6.307-2.62l-13.685-.113-0.091,17.48Z"/>
  <path id="Forma_1_copy_11" data-name="Forma 1 copy 11" class="cls-2" d="M29.855,30.842L19.7,41A11.544,11.544,0,0,1,3.369,24.673l9.48-9.477Z"/>
</svg>
