<svg xmlns="http://www.w3.org/2000/svg" width="46" height="40" viewBox="0 0 46 40">
  <defs>
    <style>
      .cls-1 {
        fill: #737373;
        fill-rule: evenodd;
      }

      .cls-2 {
        fill: #f48b20;
      }
    </style>
  </defs>
  <path id="Forma_1" data-name="Forma 1" class="cls-1" d="M39.268,1.617A12.9,12.9,0,0,0,22.993,4.734,12.912,12.912,0,0,0,6.709,1.617,13.151,13.151,0,0,0,.633,17.145c2.23,10.114,22.359,22.867,22.359,22.867S43.11,27.259,45.343,17.145A13.148,13.148,0,0,0,39.268,1.617ZM38.42,4.4a10.6,10.6,0,0,0-5.16-1.338c-3.307,0-8.312,2.542-10.267,4.921C21.03,5.608,16.028,3.066,12.717,3.066A10.611,10.611,0,0,0,7.561,4.4C4.268,6.24,3.06,9.77,3.06,13.827a10.678,10.678,0,0,0,.528,3.318c1.833,8.3,19.406,19.788,19.406,19.788s17.563-11.49,19.4-19.788a10.682,10.682,0,0,0,.528-3.318C42.921,9.771,41.713,6.242,38.42,4.4Z"/>
  <path id="Forma_1_copy_5" data-name="Forma 1 copy 5" class="cls-1" d="M39.268,1.617A12.9,12.9,0,0,0,22.993,4.734,12.912,12.912,0,0,0,6.709,1.617,13.151,13.151,0,0,0,.633,17.145c2.23,10.114,22.359,22.867,22.359,22.867S43.11,27.259,45.343,17.145A13.148,13.148,0,0,0,39.268,1.617ZM38.42,4.4a10.6,10.6,0,0,0-5.16-1.338c-3.307,0-8.312,2.542-10.267,4.921C21.03,5.608,16.028,3.066,12.717,3.066A10.611,10.611,0,0,0,7.561,4.4C4.268,6.24,3.06,9.77,3.06,13.827a10.678,10.678,0,0,0,.528,3.318c1.833,8.3,19.406,19.788,19.406,19.788s17.563-11.49,19.4-19.788a10.682,10.682,0,0,0,.528-3.318C42.921,9.771,41.713,6.242,38.42,4.4Z"/>
  <rect id="Rectangle_16_copy_2" data-name="Rectangle 16 copy 2" class="cls-2" x="19.875" y="11.281" width="5.219" height="18.469"/>
  <rect id="Rectangle_16_copy_2-2" data-name="Rectangle 16 copy 2" class="cls-2" x="13.281" y="16.844" width="18.406" height="5.281"/>
</svg>
