<?xml version="1.0" encoding="utf-8"?>
<!-- Generator: Adobe Illustrator 15.0.0, SVG Export Plug-In  -->
<!DOCTYPE svg PUBLIC "-//W3C//DTD SVG 1.1//EN" "http://www.w3.org/Graphics/SVG/1.1/DTD/svg11.dtd" [
	<!ENTITY ns_flows "http://ns.adobe.com/Flows/1.0/">
]>
<svg version="1.1"
	 xmlns="http://www.w3.org/2000/svg" xmlns:xlink="http://www.w3.org/1999/xlink" xmlns:a="http://ns.adobe.com/AdobeSVGViewerExtensions/3.0/"
	 x="0px" y="0px" width="33px" height="41px" viewBox="0 0 33 41" enable-background="new 0 0 33 41" xml:space="preserve">
<defs>
</defs>
<g>
	<g>
		<path fill="#F48B20" d="M31.743,4.325c-0.887-1.569-2.4-2.571-4.127-2.772C27.284,0.928,26.645,0.5,25.9,0.5
			c-1.083,0-1.962,0.896-1.962,2.003s0.879,2.003,1.962,2.003c0.705,0,1.318-0.384,1.664-0.955c1.043,0.176,1.951,0.805,2.495,1.767
			c0.645,1.141,0.645,2.503,0,3.645l-6.248,11.053c-0.645,1.141-1.799,1.822-3.09,1.822c-1.289,0-2.443-0.681-3.089-1.822
			L11.385,8.963c-0.645-1.141-0.645-2.504,0-3.645c0.538-0.952,1.434-1.577,2.464-1.761c0.346,0.568,0.958,0.949,1.661,0.949
			c1.083,0,1.961-0.897,1.961-2.003S16.593,0.5,15.51,0.5c-0.746,0-1.386,0.43-1.718,1.055c-1.712,0.212-3.21,1.212-4.091,2.771
			c-0.997,1.763-0.997,3.868,0,5.63l6.247,11.054c0.831,1.47,2.211,2.443,3.802,2.727v5.332c0,5.207-3.01,9.443-6.708,9.443
			c-3.699,0-6.708-4.236-6.708-9.443v-6.348c2.215-0.462,3.888-2.468,3.888-4.865c0-2.737-2.18-4.965-4.86-4.965
			c-2.68,0-4.86,2.228-4.86,4.965c0,2.397,1.672,4.403,3.888,4.865v6.348c0,6.303,3.882,11.43,8.654,11.43
			c4.771,0,8.653-5.127,8.653-11.43v-5.332c1.591-0.283,2.971-1.257,3.801-2.727l6.248-11.054
			C32.739,8.193,32.739,6.088,31.743,4.325z"/>
	</g>
	<g>
		<path fill="none" stroke="#F48B20" stroke-miterlimit="10" d="M31.743,4.325c-0.887-1.569-2.4-2.571-4.127-2.772
			C27.284,0.928,26.645,0.5,25.9,0.5c-1.083,0-1.962,0.896-1.962,2.003s0.879,2.003,1.962,2.003c0.705,0,1.318-0.384,1.664-0.955
			c1.043,0.176,1.951,0.805,2.495,1.767c0.645,1.141,0.645,2.503,0,3.645l-6.248,11.053c-0.645,1.141-1.799,1.822-3.09,1.822
			c-1.289,0-2.443-0.681-3.089-1.822L11.385,8.963c-0.645-1.141-0.645-2.504,0-3.645c0.538-0.952,1.434-1.577,2.464-1.761
			c0.346,0.568,0.958,0.949,1.661,0.949c1.083,0,1.961-0.897,1.961-2.003S16.593,0.5,15.51,0.5c-0.746,0-1.386,0.43-1.718,1.055
			c-1.712,0.212-3.21,1.212-4.091,2.771c-0.997,1.763-0.997,3.868,0,5.63l6.247,11.054c0.831,1.47,2.211,2.443,3.802,2.727v5.332
			c0,5.207-3.01,9.443-6.708,9.443c-3.699,0-6.708-4.236-6.708-9.443v-6.348c2.215-0.462,3.888-2.468,3.888-4.865
			c0-2.737-2.18-4.965-4.86-4.965c-2.68,0-4.86,2.228-4.86,4.965c0,2.397,1.672,4.403,3.888,4.865v6.348
			c0,6.303,3.882,11.43,8.654,11.43c4.771,0,8.653-5.127,8.653-11.43v-5.332c1.591-0.283,2.971-1.257,3.801-2.727l6.248-11.054
			C32.739,8.193,32.739,6.088,31.743,4.325z"/>
	</g>
</g>
</svg>
