<svg xmlns="http://www.w3.org/2000/svg" width="25" height="30" viewBox="0 0 25 30">
  <defs>
    <style>
      .cls-1, .cls-2 {
        fill: #fff;
      }

      .cls-1 {
        fill-rule: evenodd;
      }
    </style>
  </defs>
  <path id="Forma_1" data-name="Forma 1" class="cls-1" d="M1.042,22.741H1.056V22.716l0.019-.034-0.011-.026,1.865-3.363,2.382-4.352a8.716,8.716,0,1,1,13.948-.008l2.382,4.352,1.816,3.386,0.067-.149,0,0.149,0.011,0.011H23.5l0.75,1.377a1.705,1.705,0,0,1-.074,1.758,1.664,1.664,0,0,1-1.583.744l-3.108-.346-1.368,2.831A1.67,1.67,0,0,1,16.646,30H16.6a1.691,1.691,0,0,1-1.476-.879l-2.844-5.205L9.441,29.12A1.646,1.646,0,0,1,7.925,30a1.685,1.685,0,0,1-1.467-.955L5.089,26.214l-3.108.346a1.692,1.692,0,0,1-1.657-2.5ZM12.285,4.278a5.391,5.391,0,1,0,5.35,5.391A5.375,5.375,0,0,0,12.285,4.278ZM5.9,22.7a1.685,1.685,0,0,1,1.7.946l0.462,0.963,2.753-5.036a1.678,1.678,0,0,1,2.951,0l2.753,5.036,0.462-.963a1.678,1.678,0,0,1,1.7-.946l1.063,0.118L16.7,17.248a8.824,8.824,0,0,1-8.812,0L4.841,22.817Zm-4.841-.063,0.008,0.02-0.008.015V22.635Z"/>
  <circle class="cls-2" cx="12.5" cy="9.5" r="2.5"/>
</svg>
