<?xml version="1.0" encoding="utf-8"?>
<!-- Generator: Adobe Illustrator 15.0.0, SVG Export Plug-In  -->
<!DOCTYPE svg PUBLIC "-//W3C//DTD SVG 1.1//EN" "http://www.w3.org/Graphics/SVG/1.1/DTD/svg11.dtd" [
	<!ENTITY ns_flows "http://ns.adobe.com/Flows/1.0/">
]>
<svg version="1.1"
	 xmlns="http://www.w3.org/2000/svg" xmlns:xlink="http://www.w3.org/1999/xlink" xmlns:a="http://ns.adobe.com/AdobeSVGViewerExtensions/3.0/"
	 x="0px" y="0px" width="54px" height="40px" viewBox="0 0 54 40" enable-background="new 0 0 54 40" xml:space="preserve">
<defs>
</defs>
<g>
	<g>
		<path fill="#F48B20" d="M47.396,0H6.602C2.96,0,0,2.882,0,6.427v27.145c0,3.546,2.96,6.427,6.602,6.427h40.782
			c3.642,0,6.602-2.881,6.602-6.427V6.438C53.997,2.893,51.036,0,47.396,0z M47.396,37.063H6.602c-1.978,0-3.586-1.566-3.586-3.491
			V6.438c0-1.925,1.608-3.491,3.586-3.491h40.782c1.978,0,3.586,1.566,3.586,3.491v27.133h0.011
			C50.98,35.496,49.372,37.063,47.396,37.063z M34.047,19.662L47.25,8.135c0.614-0.544,0.67-1.469,0.111-2.078
			c-0.559-0.598-1.508-0.652-2.134-0.109L27.021,21.859l-3.552-3.089c-0.012-0.011-0.022-0.022-0.022-0.033
			c-0.078-0.076-0.156-0.141-0.246-0.206L8.746,5.938C8.12,5.394,7.171,5.448,6.612,6.057S6.109,7.591,6.735,8.135L20.095,19.76
			L6.791,31.886c-0.603,0.555-0.637,1.479-0.066,2.077c0.301,0.305,0.703,0.467,1.105,0.467c0.368,0,0.737-0.13,1.027-0.391
			l13.505-12.3l3.664,3.187c0.291,0.25,0.648,0.369,1.005,0.369c0.357,0,0.727-0.13,1.006-0.38l3.765-3.285l13.426,12.42
			c0.291,0.271,0.671,0.402,1.039,0.402c0.402,0,0.793-0.152,1.095-0.457c0.57-0.587,0.548-1.522-0.056-2.077L34.047,19.662z"/>
	</g>
</g>
</svg>
