<svg xmlns="http://www.w3.org/2000/svg" width="27" height="20" viewBox="0 0 27 20">
  <defs>
    <style>
      .cls-1 {
        fill: #fff;
        fill-rule: evenodd;
        opacity: 0.5;
      }
    </style>
  </defs>
  <path id="Forma_1_copy_9" data-name="Forma 1 copy 9" class="cls-1" d="M1.345,10l9.143-8.776A1.62,1.62,0,0,1,11.856.643L24.711,0a1.585,1.585,0,0,1,1.351.93,1.532,1.532,0,0,1-.213,1.6l-1.8,2.206,0.414,0.921,2.408,5.354a1.439,1.439,0,0,1-.307,1.619,25.036,25.036,0,0,1-7.748,5.243h0a25.538,25.538,0,0,1-9.2,2.01,1.5,1.5,0,0,1-1.428-.875L5.365,12.738l-1.45-.1L2.949,17.328h0.2a0.254,0.254,0,0,1,.277.22l0.258,2.184a0.246,0.246,0,0,1-.056.186,0.259,0.259,0,0,1-.174.091l-1.086,0a9.172,9.172,0,0,1-1.137-.092,0.244,0.244,0,0,1-.055-0.186q0.077-.643.154-1.287l0.107-.9a0.254,0.254,0,0,1,.277-0.219L2,17l1-4-0.87-.53a1.431,1.431,0,0,1-1-.866A1.458,1.458,0,0,1,1.345,10Zm7.173,2.391-0.817-.2-0.226-.051a0.942,0.942,0,0,1-.659-0.565c-0.158-.346-1.029-0.782-0.764-1.045l6.04-5.73A1.076,1.076,0,0,1,13,4.42L21.488,4c0.359,0-.17.261-0.012,0.607a0.991,0.991,0,0,1-.141,1.045L21.051,7.1l0.274,0.6,1.591,3.5a0.932,0.932,0,0,1-.2,1.057,16.554,16.554,0,0,1-5.119,3.423h0a17.042,17.042,0,0,1-6.079,1.313,1,1,0,0,1-.944-0.572l-1.864-4.1L8.654,12.25"/>
</svg>
