<?xml version="1.0" encoding="utf-8"?>
<!-- Generator: Adobe Illustrator 15.0.0, SVG Export Plug-In  -->
<!DOCTYPE svg PUBLIC "-//W3C//DTD SVG 1.1//EN" "http://www.w3.org/Graphics/SVG/1.1/DTD/svg11.dtd" [
	<!ENTITY ns_flows "http://ns.adobe.com/Flows/1.0/">
]>
<svg version="1.1"
	 xmlns="http://www.w3.org/2000/svg" xmlns:xlink="http://www.w3.org/1999/xlink" xmlns:a="http://ns.adobe.com/AdobeSVGViewerExtensions/3.0/"
	 x="0px" y="0px" width="67px" height="69px" viewBox="0 0 67 69" enable-background="new 0 0 67 69" xml:space="preserve">
<defs>
</defs>
<g>
	<g>
		<path fill="#FFFFFF" d="M62.198,58.098c-3.944-1.251-7.816-2.693-11.651-4.191c-1.094-0.42-1.907-1.354-2.892-2.006
			c-0.437-0.287-0.968-0.553-1.489-0.625c-1.776-0.24-2.564-0.779-2.986-2.282c-0.552-1.981-0.945-3.952-0.465-6.003
			c0.208-0.896,0.589-1.469,1.606-1.801c2.111-0.714,7.327-1.498,9.414-2.256c1.554-0.568,1.654-1.037,1.092-2.42
			c-1.429-3.473-2.968-9.736-4.915-14.822c0.087-0.13,0.139-0.274,0.162-0.43L52.22,5.583c0.081-0.584-0.301-1.135-0.878-1.272
			l-18.244-4.28c-0.173-0.042-0.358-0.042-0.525,0l-18.25,4.28c-0.576,0.137-0.955,0.688-0.875,1.272l2.15,15.679
			c0.03,0.242,0.15,0.451,0.311,0.62c-0.077,0.394-0.166,0.783-0.202,1.177c-0.438,4.659-1.768,9.098-3.566,13.456
			c-0.564,1.383-0.465,1.852,1.09,2.42c2.089,0.758,7.304,1.542,9.415,2.256c1.019,0.33,1.397,0.903,1.609,1.801
			c0.479,2.051,0.087,4.021-0.466,6.003c-0.424,1.503-1.208,2.042-2.989,2.282c-0.522,0.072-1.048,0.338-1.486,0.625
			c-0.985,0.652-1.799,1.586-2.889,2.006c-3.833,1.498-7.713,2.94-11.654,4.191C-1.297,60.017,0.982,63.354,0,69
			c13.245,0,20.196,0,33.444,0c0.025,0,0.058,0,0.084,0c13.242,0,20.192,0,33.438,0C65.983,63.354,68.261,60.017,62.198,58.098z
			 M17.738,19.963L15.865,6.306l16.967-3.981l16.969,3.981L47.93,19.963H17.738z M34.648,5.686h-3.627v3.633H27.38v3.616h3.642
			v3.632h3.627v-3.632h3.638V9.319h-3.638V5.686z"/>
	</g>
</g>
</svg>
