<?xml version="1.0" encoding="utf-8"?>
<!-- Generator: Adobe Illustrator 15.0.0, SVG Export Plug-In  -->
<!DOCTYPE svg PUBLIC "-//W3C//DTD SVG 1.1//EN" "http://www.w3.org/Graphics/SVG/1.1/DTD/svg11.dtd" [
	<!ENTITY ns_flows "http://ns.adobe.com/Flows/1.0/">
]>
<svg version="1.1"
	 xmlns="http://www.w3.org/2000/svg" xmlns:xlink="http://www.w3.org/1999/xlink" xmlns:a="http://ns.adobe.com/AdobeSVGViewerExtensions/3.0/"
	 x="0px" y="0px" width="82px" height="67px" viewBox="0 0 82 67" enable-background="new 0 0 82 67" xml:space="preserve">
<defs>
</defs>
<g>
	<g>
		<path fill-rule="evenodd" clip-rule="evenodd" fill="#737474" d="M7.248,28.786h10.796c0.81,0,1.35-0.539,1.35-1.347
			s-0.54-1.347-1.35-1.347H7.248c-0.81,0-1.35,0.539-1.35,1.347S6.438,28.786,7.248,28.786z M24.792,31.48H7.248
			c-0.81,0-1.35,0.538-1.35,1.347c0,0.808,0.54,1.347,1.35,1.347h17.544c0.81,0,1.35-0.539,1.35-1.347
			C26.142,32.018,25.602,31.48,24.792,31.48z M34.239,26.092H23.442c-0.81,0-1.35,0.539-1.35,1.347s0.54,1.347,1.35,1.347h10.797
			c0.81,0,1.35-0.539,1.35-1.347S35.049,26.092,34.239,26.092z M34.239,31.479H30.19c-0.81,0-1.35,0.539-1.35,1.347
			c0,0.808,0.54,1.347,1.35,1.347h4.049c0.81,0,1.35-0.539,1.35-1.347C35.589,32.018,35.049,31.479,34.239,31.479z M80.259,14.777
			c-0.944-1.212-2.159-1.886-3.644-2.02l-3.239-0.392V5.888c0-2.963-2.429-5.388-5.397-5.388H5.898C2.93,0.5,0.5,2.924,0.5,5.888
			V48.99c0,2.433,1.638,4.501,3.867,5.164c-0.068,2.725,1.998,5.09,4.77,5.342L71.487,66.5h0.539c2.699,0,5.129-2.021,5.398-4.58
			l4.049-43.236C81.608,17.337,81.203,15.855,80.259,14.777z M3.199,48.99V20.704H3.5V18.01H3.199V9.928H3.5V7.235H3.199V5.888
			c0-1.481,1.215-2.694,2.699-2.694h62.079c1.485,0,2.699,1.212,2.699,2.694v1.347H70.5v2.693h0.178v8.082H70.5v2.694h0.178V48.99
			c0,1.481-1.215,2.693-2.699,2.693H5.898C4.414,51.684,3.199,50.472,3.199,48.99z M78.774,18.145l-4.049,43.236
			c-0.135,1.482-1.484,2.561-2.969,2.426L9.542,56.802c-1.35-0.134-2.294-1.212-2.429-2.425h60.864c2.97,0,5.398-2.424,5.398-5.387
			V14.912l3.104,0.27c0.675,0,1.35,0.404,1.754,0.943C78.64,16.663,78.909,17.471,78.774,18.145z"/>
	</g>
	<g>
		<path fill="none" stroke="#737474" stroke-miterlimit="10" d="M7.248,28.786h10.796c0.81,0,1.35-0.539,1.35-1.347
			s-0.54-1.347-1.35-1.347H7.248c-0.81,0-1.35,0.539-1.35,1.347S6.438,28.786,7.248,28.786z M24.792,31.48H7.248
			c-0.81,0-1.35,0.538-1.35,1.347c0,0.808,0.54,1.347,1.35,1.347h17.544c0.81,0,1.35-0.539,1.35-1.347
			C26.142,32.018,25.602,31.48,24.792,31.48z M34.239,26.092H23.442c-0.81,0-1.35,0.539-1.35,1.347s0.54,1.347,1.35,1.347h10.797
			c0.81,0,1.35-0.539,1.35-1.347S35.049,26.092,34.239,26.092z M34.239,31.479H30.19c-0.81,0-1.35,0.539-1.35,1.347
			c0,0.808,0.54,1.347,1.35,1.347h4.049c0.81,0,1.35-0.539,1.35-1.347C35.589,32.018,35.049,31.479,34.239,31.479z M80.259,14.777
			c-0.944-1.212-2.159-1.886-3.644-2.02l-3.239-0.392V5.888c0-2.963-2.429-5.388-5.397-5.388H5.898C2.93,0.5,0.5,2.924,0.5,5.888
			V48.99c0,2.433,1.638,4.501,3.867,5.164c-0.068,2.725,1.998,5.09,4.77,5.342L71.487,66.5h0.539c2.699,0,5.129-2.021,5.398-4.58
			l4.049-43.236C81.608,17.337,81.203,15.855,80.259,14.777z M3.199,48.99V20.704H3.5V18.01H3.199V9.928H3.5V7.235H3.199V5.888
			c0-1.481,1.215-2.694,2.699-2.694h62.079c1.485,0,2.699,1.212,2.699,2.694v1.347H70.5v2.693h0.178v8.082H70.5v2.694h0.178V48.99
			c0,1.481-1.215,2.693-2.699,2.693H5.898C4.414,51.684,3.199,50.472,3.199,48.99z M78.774,18.145l-4.049,43.236
			c-0.135,1.482-1.484,2.561-2.969,2.426L9.542,56.802c-1.35-0.134-2.294-1.212-2.429-2.425h60.864c2.97,0,5.398-2.424,5.398-5.387
			V14.912l3.104,0.27c0.675,0,1.35,0.404,1.754,0.943C78.64,16.663,78.909,17.471,78.774,18.145z"/>
	</g>
</g>
<rect x="3.199" y="5.888" fill-rule="evenodd" clip-rule="evenodd" fill="#F48B20" width="67.479" height="14.816"/>
<rect x="41" y="26.092" fill-rule="evenodd" clip-rule="evenodd" fill="#F48B20" width="23.5" height="17.408"/>
</svg>
