<?xml version="1.0" encoding="utf-8"?>
<!-- Generator: Adobe Illustrator 15.0.0, SVG Export Plug-In  -->
<!DOCTYPE svg PUBLIC "-//W3C//DTD SVG 1.1//EN" "http://www.w3.org/Graphics/SVG/1.1/DTD/svg11.dtd" [
	<!ENTITY ns_flows "http://ns.adobe.com/Flows/1.0/">
]>
<svg version="1.1"
	 xmlns="http://www.w3.org/2000/svg" xmlns:xlink="http://www.w3.org/1999/xlink" xmlns:a="http://ns.adobe.com/AdobeSVGViewerExtensions/3.0/"
	 x="0px" y="0px" width="512px" height="512px" viewBox="0 -0.074 512 512" enable-background="new 0 -0.074 512 512"
	 xml:space="preserve">
<defs>
</defs>
<ellipse fill="#4D9DE0" cx="364.507" cy="412.335" rx="16.202" ry="17.457"/>
<path fill="#4D9DE0" d="M174.359,347.732c-7.736-7.734-17.039-12.648-26.865-12.648c-10.14,0-19.548,4.914-27.179,12.963
	C134.949,344.91,153.557,343.238,174.359,347.732z"/>
<path fill="#4D9DE0" d="M511.586,470.038c-12.544-86.555-63.348-159.729-133.281-199.556c3.241,24.356,6.481,65.856-1.254,102.443
	c15.471,5.645,26.865,21.115,26.865,39.409c0,23.207-17.457,41.396-39.409,41.396s-39.41-18.607-39.41-41.396
	c0-19.861,12.963-36.169,30.524-40.663c10.558-43.068,1.986-98.785-0.418-113.002c-2.822-1.254-5.646-2.404-8.572-3.659
	c-23.52,24.356-55.299,39.409-90.631,39.409c-34.496,0-66.275-14.635-89.377-38.154c-3.659,8.154-10.558,28.016-9.303,57.703
	c34.496,6.898,60.943,49.131,60.943,99.935c0,18.712-3.659,37.423-10.558,53.208c-3.763,11.917-19.548,16.726-26.865,16.726
	c-10.976,0-19.861-9.304-19.861-21.116s8.99-21.116,19.861-21.116c3.241,0,7.735,0.837,12.649,2.822
	c8.362-24.147,1.986-56.866-1.986-67.843c-38.991-17.875-74.742-5.645-87.809,0c-3.659,10.977-10.663,40.873-1.986,67.843
	c4.913-1.985,9.304-2.822,12.649-2.822c10.976,0,19.861,9.304,19.861,21.116s-8.99,21.116-19.861,21.116
	c-6.899,0-22.371-4.495-26.447-15.472l0,0c-7.317-16.202-10.976-34.914-10.976-54.462c0-50.386,26.029-92.199,59.689-99.935
	c-0.836-19.549,1.672-35.751,4.495-47.563C67.002,305.501,13.376,380.661,0.414,470.038c-3.241,21.952,12.962,41.813,33.765,41.813
	h443.329C498.624,511.852,514.826,491.99,511.586,470.038z"/>
<path fill="#4D9DE0" d="M256,276.231c60.943,0,110.492-52.372,110.492-117.078c0-8.99-0.836-17.457-2.822-26.029
	c0,0-51.953-16.203-107.67-16.203c-55.612,0-107.252,16.203-107.252,16.203c-1.673,8.572-2.823,17.039-2.823,26.029
	C145.507,224.173,195.057,276.231,256,276.231z"/>
<path fill="#4D9DE0" d="M354.785,108.036c7.735-30.524,15.053-61.362,22.37-91.886c-79.342-21.534-162.969-21.534-242.206,0
	c7.317,30.524,15.053,61.362,22.371,91.886C221.817,90.474,290.183,90.474,354.785,108.036z M226.313,37.685h20.698V15.732h17.875
	v21.952h20.698v18.711h-20.698v21.953H247.01V56.396h-20.698V37.685z"/>
</svg>
