<?xml version="1.0" encoding="utf-8"?>
<!-- Generator: Adobe Illustrator 15.0.0, SVG Export Plug-In  -->
<!DOCTYPE svg PUBLIC "-//W3C//DTD SVG 1.1//EN" "http://www.w3.org/Graphics/SVG/1.1/DTD/svg11.dtd" [
	<!ENTITY ns_flows "http://ns.adobe.com/Flows/1.0/">
]>
<svg version="1.1"
	 xmlns="http://www.w3.org/2000/svg" xmlns:xlink="http://www.w3.org/1999/xlink" xmlns:a="http://ns.adobe.com/AdobeSVGViewerExtensions/3.0/"
	 x="0px" y="0px" width="27px" height="19px" viewBox="0 0 27 19" enable-background="new 0 0 27 19" xml:space="preserve">
<defs>
</defs>
<path fill="#020202" d="M10.009,10.419L0.6,18.484C0.942,18.804,1.403,19,1.913,19h22.774c0.507,0,0.967-0.196,1.309-0.516
	l-9.403-8.065L13.3,13.3L10.009,10.419z"/>
<path fill="#020202" d="M24.687,0H1.913C1.406,0,0.946,0.198,0.604,0.519L13.3,11.4L25.999,0.515C25.657,0.196,25.197,0,24.687,0z"
	/>
<path fill="#020202" d="M0,17.452L9.183,9.65L0,1.668V17.452z"/>
<path fill="#020202" d="M26.6,17.452V1.663L17.417,9.65L26.6,17.452z"/>
</svg>
