<svg xmlns="http://www.w3.org/2000/svg" width="19" height="30" viewBox="0 0 19 30">
  <defs>
    <style>
      .cls-1, .cls-2 {
        fill: #fff;
      }

      .cls-1 {
        fill-rule: evenodd;
      }
    </style>
  </defs>
  <path id="Forma_1_copy_11" data-name="Forma 1 copy 11" class="cls-1" d="M9.5,0.012A9.558,9.558,0,0,0,0,9.606c0,2.131,1.347,5.6,4.119,10.62,1.96,3.547,3.888,6.5,3.969,6.629L9.5,29.016l1.412-2.161c0.081-.124,2.009-3.082,3.969-6.629C17.653,15.211,19,11.737,19,9.606A9.558,9.558,0,0,0,9.5.012Zm0,3A6.563,6.563,0,0,0,3,9.618c0,1.468.922,3.861,2.818,7.316,1.341,2.444,2.66,4.481,2.716,4.567L9.5,22.99,10.466,21.5c0.055-.086,1.375-2.123,2.716-4.567C15.078,13.479,16,11.086,16,9.618A6.563,6.563,0,0,0,9.5,3.009Z"/>
  <circle class="cls-2" cx="9.5" cy="9.5" r="3.5"/>
</svg>
