<?xml version="1.0" encoding="utf-8"?>
<!-- Generator: Adobe Illustrator 15.0.0, SVG Export Plug-In  -->
<!DOCTYPE svg PUBLIC "-//W3C//DTD SVG 1.1//EN" "http://www.w3.org/Graphics/SVG/1.1/DTD/svg11.dtd" [
	<!ENTITY ns_flows "http://ns.adobe.com/Flows/1.0/">
]>
<svg version="1.1"
	 xmlns="http://www.w3.org/2000/svg" xmlns:xlink="http://www.w3.org/1999/xlink" xmlns:a="http://ns.adobe.com/AdobeSVGViewerExtensions/3.0/"
	 x="0px" y="0px" width="101px" height="93px" viewBox="0 0 101 93" enable-background="new 0 0 101 93" xml:space="preserve">
<defs>
</defs>
<path fill="#737474" d="M69.26,19.465c-4.873,0-9.324,2.81-11.473,7.254l-2.215,4.582v-5.213c0-3.514,1.065-6.907,3.058-9.781
	c1.163-1.682,1.851-3.724,1.851-5.931C60.48,4.647,55.915,0,50.263,0c-5.649,0-10.269,4.647-10.269,10.376
	c0,2.139,0.675,4.13,1.771,5.782c1.859,2.805,2.86,6.11,2.86,9.49v4.383l-1.502-3.186c-2.123-4.509-6.609-7.38-11.536-7.38H3.491
	c-1.249,0-2.401,0.675-3.026,1.772c-0.62,1.096-0.62,2.447,0.004,3.543c1.752,3.084,4.242,5.666,7.239,7.512l20.475,12.605
	c-0.558-0.977-1.008-1.988-1.318-2.975c-0.745-2.424-0.858-4.443-0.789-5.701c0.117-5.861,3.865-8.479,7.592-8.112
	c2.281,0.229,4.191,1.572,5.243,3.45l2.174,3.922c0.025-0.016,3.843,3.088,9.4,4.625c6.07-1.958,9.426-4.641,9.441-4.625
	l2.154-3.887c1.832-3.314,5.976-4.496,9.252-2.631c1.993,1.139,3.644,3.76,3.615,7.262c-0.054,2.025-0.051,3.27-0.789,5.695
	c-0.307,0.957-0.741,1.938-1.283,2.9l20.369-12.529c2.998-1.843,5.484-4.426,7.243-7.512c0.621-1.096,0.621-2.447,0-3.543
	c-0.624-1.097-1.78-1.772-3.025-1.772H69.26z"/>
<g>
	<g>
		<path fill="#F48B20" d="M54.983,63.252c-0.906-0.447-3.957-1.846-4.471-2.074c-0.525,0.229-3.567,1.627-4.477,2.074
			c0.985,0.264,3.998,1.104,4.477,1.241C50.985,64.356,54.001,63.516,54.983,63.252z M53.573,80.799
			c-1.001-0.064-5.132-0.064-6.127,0c-0.517,0.033-1.002,0.007-1.585,0.08c-0.405,0.056-0.709,0.116-1.242,0.171v6.36
			c0,3.059,2.459,5.535,5.479,5.535c3.014,0,5.472-2.479,5.472-5.535v-6.457c0-0.025-0.313-0.051-0.484-0.074
			C54.495,80.809,54.09,80.834,53.573,80.799z M33.708,77.677c-0.399,0.84-0.675,1.704-0.773,2.554
			c-0.364,2.453,0.311,4.357,0.97,5.658c1.426,2.603,2.775,3.461,2.775,3.461s-0.099-0.39-0.174-1.106
			c-0.871-8.274,4.765-9.091,5.066-9.178c-4.576-0.771-6.831-1.575-7.607-1.894C33.876,77.336,33.787,77.504,33.708,77.677z
			 M70.898,57.212c-2.024-3.331-6.369-6.019-7.307-6.56c1.441-0.955,2.782-2.019,3.947-3.231c4.319-4.483,4.386-9.274,4.354-10.306
			c-0.066-1.027-0.101-1.576-0.101-1.576c-0.188-2.492-2.339-4.354-4.794-4.164c-2.455,0.195-4.293,2.376-4.097,4.869
			c-0.048-0.018-0.01,0.894-0.573,1.867c-0.314,0.482-0.758,1.119-1.695,1.868c-0.932,0.74-2.266,1.608-3.974,2.45
			c-1.752,0.873-3.827,1.721-6.149,2.631c-1.854-0.724-3.539-1.408-5.031-2.094c-0.394-0.176-0.764-0.357-1.125-0.537
			c-1.714-0.842-3.048-1.714-3.973-2.45c-0.938-0.749-1.389-1.386-1.701-1.868c-0.564-0.974-0.526-1.881-0.567-1.867
			c0.196-2.493-1.645-4.67-4.104-4.869c-2.449-0.189-4.597,1.672-4.794,4.164c0,0-0.034,0.549-0.095,1.576
			c-0.038,1.031,0.076,2.646,0.7,4.595c0.644,1.937,2.595,5.547,7.601,8.942c5.861,3,12.965,6.457,13.086,6.412
			c1.001,0.424,12.423,5.046,11.44,7.242c-0.13,0.434-0.896,0.711-1.961,1.07c-1.1,0.412-2.393,0.75-3.764,1.08
			c-0.768,0.188-1.559,0.367-2.357,0.563c6.546,2.174,11.485,4.852,13.507,6.235c0.085,0.055,0.158,0.108,0.231,0.164
			c0.456-0.297,0.912-0.635,1.374-1.023C71.396,70.274,75.179,64.239,70.898,57.212z M65.122,74.583
			c-5.063-3.637-23.06-8.826-24.079-9.204c-1.059-0.359-1.793-0.854-1.933-1.07c-0.196-0.578,0.23-0.951,0.329-1.045
			c1.049-1.128,5.479-3.714,7.55-4.662c-5.106-2.293-10.585-4.682-12.683-5.914c-1.435,1.104-3.121,2.412-4.188,4.531
			c-1.851,3.686-1.851,7.628-1.851,7.628c0,2.585,1.708,5.958,3.773,7.557c0.542,0.456,1.074,0.839,1.601,1.175
			c1.479,0.928,2.877,1.42,4.118,1.803c3.432,1.016,6.321,1.379,9.064,1.686c2.602,0.32,5.111,0.631,7.504,0.926
			c0.795,0.094,7.385,0.82,9.235,3.684c0.678,1.056,1.021,2.41,1.093,3.615c0.096,1.223-0.035,2.258-0.14,2.958
			c-0.085,0.718-0.184,1.106-0.184,1.106s1.543-0.762,2.782-3.459C70.565,78.336,65.167,74.613,65.122,74.583z"/>
	</g>
</g>
</svg>
