<?xml version="1.0" encoding="utf-8"?>
<!-- Generator: Adobe Illustrator 15.0.0, SVG Export Plug-In  -->
<!DOCTYPE svg PUBLIC "-//W3C//DTD SVG 1.1//EN" "http://www.w3.org/Graphics/SVG/1.1/DTD/svg11.dtd" [
	<!ENTITY ns_flows "http://ns.adobe.com/Flows/1.0/">
]>
<svg version="1.1"
	 xmlns="http://www.w3.org/2000/svg" xmlns:xlink="http://www.w3.org/1999/xlink" xmlns:a="http://ns.adobe.com/AdobeSVGViewerExtensions/3.0/"
	 x="0px" y="0px" width="15px" height="16px" viewBox="0 0 15 16" enable-background="new 0 0 15 16" xml:space="preserve">
<defs>
</defs>
<path fill="#5F6060" d="M8.279,9.176C8.582,8.851,8.732,8.426,8.732,8c0-0.425-0.15-0.85-0.453-1.174c0,0-0.001,0-0.001-0.001
	L2.375,0.486c-0.604-0.648-1.584-0.648-2.188,0c-0.604,0.649,0.396,1.701,1,2.35L5.997,8l-4.81,5.166
	c-0.604,0.647-1.604,1.7-1,2.349c0.303,0.324,0.698,0.487,1.095,0.487c0.396,0,0.791-0.163,1.094-0.487L8.279,9.176
	C8.278,9.176,8.279,9.176,8.279,9.176z"/>
<path fill="#5F6060" d="M14.279,6.826C14.279,6.825,14.278,6.825,14.279,6.826L8.375,0.486c-0.604-0.648-1.584-0.648-2.188,0
	c-0.604,0.649,0.396,1.701,1,2.35L11.997,8l-4.81,5.166c-0.604,0.647-1.604,1.7-1,2.349c0.303,0.324,0.698,0.487,1.095,0.487
	c0.396,0,0.791-0.163,1.094-0.487l5.902-6.338c0-0.001,0.001-0.001,0.001-0.001c0.303-0.325,0.453-0.75,0.453-1.176
	C14.732,7.575,14.582,7.15,14.279,6.826z"/>
</svg>
