<?xml version="1.0" encoding="utf-8"?>
<!-- Generator: Adobe Illustrator 15.0.0, SVG Export Plug-In  -->
<!DOCTYPE svg PUBLIC "-//W3C//DTD SVG 1.1//EN" "http://www.w3.org/Graphics/SVG/1.1/DTD/svg11.dtd" [
	<!ENTITY ns_flows "http://ns.adobe.com/Flows/1.0/">
]>
<svg version="1.1"
	 xmlns="http://www.w3.org/2000/svg" xmlns:xlink="http://www.w3.org/1999/xlink" xmlns:a="http://ns.adobe.com/AdobeSVGViewerExtensions/3.0/"
	 x="0px" y="0px" width="79px" height="90px" viewBox="0 0 79 90" enable-background="new 0 0 79 90" xml:space="preserve">
<defs>
</defs>
<g>
	<g>
		<path fill="#FFFFFF" d="M73.851,13.583C64.182,5.296,52.158,0,39.107,0C26.439,0,14.732,5.49,5.201,13.566
			c-4.882,4.138-6.533,10.963-4.07,16.868l5.817,13.944c5.561-12.211,17.868-20.702,32.159-20.702
			c14.641,0,27.199,8.901,32.554,21.583l6.197-14.862C80.311,24.516,78.692,17.73,73.851,13.583z M46.116,15.859h-4.081v4.279
			h-5.698v-4.279h-4.286v-5.704h4.286V5.874h5.698v4.282h4.081V15.859z M54.785,32.197c-0.003,0.003-0.008,0.008-0.008,0.012
			c0,0-10.186,15.957-27.645,21.746c-0.702,0.234-1.472-0.028-1.889-0.643c-0.411-0.611-0.372-1.426,0.107-1.988
			c0.77-0.907,1.55-1.916,2.237-2.978c0.505-0.78,0.477-1.792-0.07-2.544s-1.502-1.087-2.403-0.845
			C19.749,46.4,11.068,50.439,8.196,61.662c1.364,15.87,14.681,28.33,30.911,28.33c17.144,0,31.037-13.888,31.037-31.023
			C70.145,47.555,63.97,37.583,54.785,32.197z"/>
	</g>
</g>
</svg>
