<?xml version="1.0" encoding="utf-8"?>
<!-- Generator: Adobe Illustrator 15.0.0, SVG Export Plug-In  -->
<!DOCTYPE svg PUBLIC "-//W3C//DTD SVG 1.1//EN" "http://www.w3.org/Graphics/SVG/1.1/DTD/svg11.dtd" [
	<!ENTITY ns_flows "http://ns.adobe.com/Flows/1.0/">
]>
<svg version="1.1"
	 xmlns="http://www.w3.org/2000/svg" xmlns:xlink="http://www.w3.org/1999/xlink" xmlns:a="http://ns.adobe.com/AdobeSVGViewerExtensions/3.0/"
	 x="0px" y="0px" width="82px" height="66px" viewBox="0 0 82 66" enable-background="new 0 0 82 66" xml:space="preserve">
<defs>
</defs>
<path fill="#737474" d="M70.89,0H11.103C4.97,0,0,4.945,0,11.048V54.92c0,6.102,4.97,11.048,11.103,11.048H70.89
	c6.132,0,11.102-4.946,11.102-11.048V11.048C81.991,4.945,77.021,0,70.89,0z M78.001,55.879c0,3.358-2.722,6.092-6.065,6.092H10.058
	c-3.346,0-6.066-2.733-6.066-6.092V10.057c0-3.36,2.72-6.092,6.066-6.092h61.878c3.344,0,6.065,2.732,6.065,6.092V55.879z"/>
<g>
	<g>
		<path fill="#F48B20" d="M40.995,39.021H39c-1.035,0-1.874-0.836-1.874-1.866c0-0.384,0.153-0.748,0.429-1.013
			c1.159-1.125,2.134-2.634,2.841-4.262c0.143,0.105,0.297,0.182,0.471,0.182c1.12,0,2.437-2.463,2.437-4.141
			c0-1.678-0.154-3.039-1.276-3.039c-0.132,0-0.271,0.022-0.416,0.059c-0.079-4.552-1.235-10.231-8.219-10.231
			c-7.289,0-8.138,5.668-8.22,10.215c-0.103-0.02-0.206-0.042-0.301-0.042c-1.122,0-1.275,1.361-1.275,3.039
			c0,1.678,1.313,4.141,2.436,4.141c0.139,0,0.267-0.039,0.387-0.108c0.705,1.599,1.667,3.081,2.809,4.188
			c0.274,0.267,0.429,0.634,0.429,1.016c0,1.03-0.84,1.863-1.874,1.863h-1.998c-4.266,0-7.724,3.442-7.724,7.688v2.131
			c0,1.342,1.091,2.427,2.439,2.427h25.777c1.347,0,2.437-1.085,2.437-2.427v-2.131C48.719,42.46,45.262,39.021,40.995,39.021z
			 M64.121,17.932H42.504c0.624,1.375,1.07,3.065,1.256,5.157c0.462,0.284,0.811,0.741,1.091,1.292h19.271
			c1,0,1.808-0.805,1.808-1.798V19.73C65.929,18.738,65.121,17.932,64.121,17.932z M41.615,36.132h22.503
			c0.998,0,1.808-0.804,1.808-1.796v-2.854c0.003-0.994-0.805-1.798-1.805-1.798H45.292c-0.512,1.92-1.77,3.931-3.511,4.467
			c-0.051,0.095-0.111,0.18-0.166,0.274V36.132z M64.121,41.435H49.423c0.971,1.529,1.539,3.333,1.539,5.269v1.183h13.159
			c1,0,1.808-0.803,1.808-1.799v-2.854C65.929,42.241,65.121,41.435,64.121,41.435z"/>
	</g>
</g>
</svg>
