<?xml version="1.0" encoding="utf-8"?>
<!-- Generator: Adobe Illustrator 15.0.0, SVG Export Plug-In  -->
<!DOCTYPE svg PUBLIC "-//W3C//DTD SVG 1.1//EN" "http://www.w3.org/Graphics/SVG/1.1/DTD/svg11.dtd" [
	<!ENTITY ns_flows "http://ns.adobe.com/Flows/1.0/">
]>
<svg version="1.1"
	 xmlns="http://www.w3.org/2000/svg" xmlns:xlink="http://www.w3.org/1999/xlink" xmlns:a="http://ns.adobe.com/AdobeSVGViewerExtensions/3.0/"
	 x="0px" y="0px" width="19px" height="19px" viewBox="0 0 19 19" enable-background="new 0 0 19 19" xml:space="preserve">
<defs>
</defs>
<path fill="#050606" d="M18.983,14.994c0.04,0.309-0.054,0.577-0.282,0.806l-2.674,2.656c-0.12,0.135-0.278,0.249-0.473,0.343
	s-0.385,0.154-0.572,0.181c-0.014,0-0.054,0.004-0.121,0.011C14.794,18.996,14.707,19,14.6,19c-0.254,0-0.666-0.044-1.236-0.131
	c-0.569-0.088-1.267-0.302-2.091-0.645c-0.824-0.342-1.759-0.855-2.805-1.539c-1.045-0.685-2.158-1.624-3.337-2.818
	c-0.938-0.926-1.716-1.812-2.332-2.656c-0.617-0.846-1.113-1.627-1.488-2.345C0.935,8.148,0.654,7.497,0.466,6.914
	C0.278,6.33,0.151,5.827,0.084,5.404C0.017,4.981-0.01,4.649,0.003,4.408c0.014-0.242,0.02-0.376,0.02-0.403
	C0.05,3.817,0.111,3.626,0.205,3.432c0.094-0.195,0.208-0.353,0.342-0.473L3.22,0.282C3.408,0.094,3.623,0,3.864,0
	c0.174,0,0.329,0.05,0.462,0.151C4.46,0.251,4.574,0.375,4.668,0.523l2.151,4.086C6.94,4.824,6.974,5.059,6.92,5.313
	s-0.167,0.47-0.342,0.644L5.593,6.944c-0.027,0.027-0.05,0.07-0.07,0.13c-0.02,0.061-0.03,0.111-0.03,0.151
	c0.054,0.282,0.174,0.604,0.362,0.966c0.161,0.322,0.409,0.715,0.744,1.178s0.811,0.996,1.427,1.6
	c0.604,0.617,1.14,1.098,1.608,1.439c0.47,0.342,0.861,0.594,1.177,0.755c0.314,0.161,0.556,0.258,0.724,0.292l0.251,0.05
	c0.027,0,0.07-0.01,0.131-0.03c0.061-0.02,0.104-0.043,0.131-0.07l1.146-1.167c0.241-0.215,0.523-0.322,0.845-0.322
	c0.228,0,0.409,0.04,0.543,0.121h0.02l3.881,2.294C18.762,14.505,18.93,14.727,18.983,14.994z"/>
</svg>
