<?xml version="1.0" encoding="utf-8"?>
<!-- Generator: Adobe Illustrator 15.0.0, SVG Export Plug-In  -->
<!DOCTYPE svg PUBLIC "-//W3C//DTD SVG 1.1//EN" "http://www.w3.org/Graphics/SVG/1.1/DTD/svg11.dtd" [
	<!ENTITY ns_flows "http://ns.adobe.com/Flows/1.0/">
]>
<svg version="1.1"
	 xmlns="http://www.w3.org/2000/svg" xmlns:xlink="http://www.w3.org/1999/xlink" xmlns:a="http://ns.adobe.com/AdobeSVGViewerExtensions/3.0/"
	 x="0px" y="0px" width="98px" height="67px" viewBox="0 0 98 67" enable-background="new 0 0 98 67" xml:space="preserve">
<defs>
</defs>
<g>
	<g>
		<path fill="#737474" d="M74.514,21.599H2.434C1.096,21.599,0,22.681,0,24.003v40.593C0,65.918,1.096,67,2.434,67h72.08
			c1.339,0,2.434-1.082,2.434-2.404V24.003C76.947,22.681,75.853,21.599,74.514,21.599z M73.986,64.004H2.992V25.001h70.994V64.004z
			 M16.388,46.644h6.044c1.338,0,2.434-1.082,2.434-2.404c0-1.323-1.096-1.404-2.434-1.404h-6.044c-1.339,0-2.435,0.081-2.435,1.404
			C13.953,45.562,15.028,46.644,16.388,46.644z M95.566,0H23.485c-1.338,0-2.434,1.082-2.434,2.404s2.096,1.404,3.434,1.404h69.647
			v38.188c0,1.322,0.095,3.405,1.434,3.405c1.338,0,2.434-1.082,2.434-2.404V2.404C98,1.082,96.904,0,95.566,0z M54.517,46.644
			h6.044c1.338,0,2.434-1.082,2.434-2.404c0-1.323-1.096-1.404-2.434-1.404h-6.044c-1.339,0-2.434,0.081-2.434,1.404
			C52.083,45.562,53.178,46.644,54.517,46.644z M85.02,10.759h-72.08c-1.339,0-2.434,1.082-2.434,2.404s2.095,1.404,3.434,1.404
			h69.646v38.188c0,1.322,0.096,3.404,1.434,3.404c1.339,0,2.434-1.082,2.434-2.404V13.164
			C87.453,11.841,86.358,10.759,85.02,10.759z"/>
	</g>
</g>
<path fill="#F48B20" d="M36.567,46.684h3.813c0.954,0,1.745,0.762,1.745,1.723c0,0.963-0.771,1.723-1.745,1.723h-6.835
	c-1.338,0-2.434,1.082-2.434,2.405c0,1.322,1.096,2.403,2.434,2.403h2.495v1.584c0,1.322,1.095,2.404,2.434,2.404
	s2.434-1.082,2.434-2.404v-1.604c3.388-0.26,6.085-3.086,6.085-6.512c0-3.606-2.961-6.531-6.612-6.531h-3.813
	c-0.953,0-1.744-0.762-1.744-1.723c0-0.942,0.771-1.724,1.744-1.724h6.713c1.339,0,2.434-1.082,2.434-2.404
	s-1.095-2.404-2.434-2.404h-2.373v-1.522c0-1.323-1.095-2.405-2.434-2.405s-2.434,1.082-2.434,2.405v1.563
	c-3.387,0.26-6.085,3.086-6.085,6.512C29.955,43.758,32.917,46.684,36.567,46.684z"/>
</svg>
