<svg xmlns="http://www.w3.org/2000/svg" width="58" height="56" viewBox="0 0 58 56">
  <defs>
    <style>
      .cls-1 {
        fill: #737373;
      }

      .cls-1, .cls-2 {
        fill-rule: evenodd;
      }

      .cls-2 {
        fill: #304770;
      }
    </style>
  </defs>
  <path class="cls-1" d="M54.252,0.007H3.748C1.68,0.007,0,2.167,0,4.831v33.4c0,2.664,1.676,4.823,3.744,4.823H21.579L17.472,55.992,29.25,43.051h25c2.068,0,3.744-2.159,3.744-4.823V4.831C58,2.167,56.32.007,54.252,0.007Zm-2.742,3H6.489C4.564,3.007,3,5.051,3,7.572V35.18c0,2.521,1.56,4.564,3.486,4.564h17.6l-0.824,6.248,5.966-6.248H51.511C53.436,39.744,55,37.7,55,35.18V7.572C55,5.051,53.436,3.007,51.511,3.007Z"/>
  <path id="Forma_1" data-name="Forma 1" class="cls-2" d="M29.123,7.988c4.984,0,9.891,2.232,9.891,7.571,0,4.924-5.8,6.817-7.048,8.6-0.935,1.324-.623,3.182-3.193,3.182A2.44,2.44,0,0,1,26.28,24.8c0-4.508,6.813-5.529,6.813-9.241,0-2.044-1.4-3.255-3.737-3.255-4.985,0-3.038,5-6.813,5a2.3,2.3,0,0,1-2.532-2.309C20.011,11.279,24.372,7.988,29.123,7.988ZM28.929,29.8A3.107,3.107,0,1,1,25.735,32.9,3.165,3.165,0,0,1,28.929,29.8Z"/>
</svg>
