<?xml version="1.0" encoding="utf-8"?>
<!-- Generator: Adobe Illustrator 15.0.0, SVG Export Plug-In  -->
<!DOCTYPE svg PUBLIC "-//W3C//DTD SVG 1.1//EN" "http://www.w3.org/Graphics/SVG/1.1/DTD/svg11.dtd" [
	<!ENTITY ns_flows "http://ns.adobe.com/Flows/1.0/">
]>
<svg version="1.1"
	 xmlns="http://www.w3.org/2000/svg" xmlns:xlink="http://www.w3.org/1999/xlink" xmlns:a="http://ns.adobe.com/AdobeSVGViewerExtensions/3.0/"
	 x="0px" y="0px" width="121px" height="88px" viewBox="0 0 121 88" enable-background="new 0 0 121 88" xml:space="preserve">
<defs>
</defs>
<path fill="#F5F5F5" d="M30.771,31.058c3.156-3.738,7.62-7.046,13.398-9.921c1.288-0.669,3.206-1.582,5.752-2.732
	c7.598-3.257,11.731-6.758,12.403-10.496c0.379-2.107-0.192-3.954-1.711-5.536C59.091,0.791,57.164,0,54.826,0
	C43.913,0,32.812,5.392,21.526,16.176C10.241,26.959,3.308,39.541,0.732,53.919c-1.735,9.683-0.386,17.782,4.049,24.299
	c4.435,6.521,10.84,9.778,19.221,9.778c7.209,0,13.551-2.229,19.027-6.687s8.824-10.087,10.043-16.895
	c1.201-6.708,0.219-12.101-2.948-16.176c-3.167-4.073-7.917-6.11-14.249-6.11c-1.658,0-3.446,0.193-5.364,0.575
	c-1.92,0.384-3.971,0.959-6.154,1.725C25.477,39.253,27.614,34.796,30.771,31.058z M89.497,31.129
	c3.163-3.786,7.632-7.118,13.409-9.993c1.387-0.669,3.245-1.532,5.579-2.588c7.615-3.354,11.758-6.902,12.43-10.64
	c0.379-2.107-0.217-3.954-1.784-5.536C117.563,0.791,115.61,0,113.271,0c-10.814,0-21.817,5.392-33.007,16.176
	S62.192,39.541,59.617,53.919c-1.754,9.777-0.457,17.901,3.889,24.371c4.345,6.471,10.707,9.706,19.088,9.706
	c7.21,0,13.605-2.252,19.187-6.759c5.581-4.504,8.973-10.111,10.176-16.822c1.186-6.613,0.151-11.981-3.105-16.104
	c-3.257-4.121-8.1-6.183-14.53-6.183c-1.462,0-3.129,0.193-4.999,0.575c-1.872,0.384-3.897,0.959-6.081,1.725
	C84.247,39.35,86.332,34.917,89.497,31.129z"/>
</svg>
