<?xml version="1.0" encoding="utf-8"?>
<!-- Generator: Adobe Illustrator 15.0.0, SVG Export Plug-In  -->
<!DOCTYPE svg PUBLIC "-//W3C//DTD SVG 1.1//EN" "http://www.w3.org/Graphics/SVG/1.1/DTD/svg11.dtd" [
	<!ENTITY ns_flows "http://ns.adobe.com/Flows/1.0/">
]>
<svg version="1.1"
	 xmlns="http://www.w3.org/2000/svg" xmlns:xlink="http://www.w3.org/1999/xlink" xmlns:a="http://ns.adobe.com/AdobeSVGViewerExtensions/3.0/"
	 x="0px" y="0px" width="42px" height="41px" viewBox="0 0 42 41" enable-background="new 0 0 42 41" xml:space="preserve">
<defs>
</defs>
<g>
	<g>
		<path fill="none" stroke="#F48B20" stroke-width="3" stroke-miterlimit="10" d="M39.145,22.605
			c0.895-1.039,1.341-2.268,1.341-3.687c0-1.287-0.464-2.4-1.388-3.341c-0.926-0.94-2.022-1.41-3.289-1.41H29.06
			c0.065-0.231,0.13-0.43,0.194-0.594c0.064-0.165,0.154-0.347,0.269-0.544c0.113-0.198,0.194-0.347,0.243-0.446
			c0.292-0.561,0.516-1.023,0.67-1.385c0.154-0.363,0.309-0.858,0.463-1.485c0.154-0.626,0.23-1.253,0.23-1.88
			c0-0.396-0.004-0.718-0.012-0.965s-0.049-0.619-0.121-1.114c-0.074-0.495-0.171-0.907-0.293-1.237
			c-0.122-0.33-0.316-0.701-0.584-1.113c-0.269-0.413-0.594-0.747-0.976-1.003s-0.869-0.47-1.462-0.643
			c-0.594-0.173-1.263-0.26-2.011-0.26c-0.422,0-0.787,0.156-1.097,0.47c-0.324,0.33-0.601,0.742-0.828,1.237
			s-0.387,0.923-0.475,1.287c-0.09,0.363-0.191,0.866-0.305,1.509c-0.147,0.693-0.256,1.191-0.33,1.497
			c-0.073,0.305-0.215,0.705-0.426,1.2C22,9.195,21.748,9.59,21.455,9.887c-0.536,0.544-1.356,1.534-2.461,2.969
			c-0.796,1.056-1.616,2.053-2.461,2.994s-1.462,1.427-1.852,1.46c-0.406,0.033-0.755,0.202-1.048,0.507
			c-0.292,0.306-0.439,0.664-0.439,1.076v15.86c0,0.429,0.155,0.796,0.463,1.101c0.308,0.306,0.674,0.466,1.096,0.482
			c0.568,0.017,1.852,0.38,3.85,1.089c1.25,0.43,2.229,0.755,2.936,0.977c0.706,0.224,1.694,0.462,2.96,0.718
			c1.268,0.256,2.437,0.385,3.508,0.385h0.415h1.852h0.878c2.16-0.033,3.76-0.677,4.8-1.93c0.942-1.139,1.339-2.632,1.194-4.479
			c0.633-0.611,1.072-1.386,1.314-2.326c0.276-1.006,0.276-1.971,0-2.895c0.748-1.006,1.098-2.136,1.048-3.39
			C39.511,23.958,39.389,23.332,39.145,22.605z M10.077,17.335H3.06c-0.423,0-0.788,0.157-1.097,0.471S1.5,18.49,1.5,18.919v15.835
			c0,0.43,0.154,0.801,0.463,1.114c0.309,0.313,0.674,0.469,1.097,0.469h7.017c0.422,0,0.788-0.156,1.096-0.469
			c0.309-0.313,0.463-0.685,0.463-1.114V18.919c0-0.429-0.154-0.8-0.463-1.113C10.864,17.492,10.499,17.335,10.077,17.335z
			 M7.274,32.713c-0.309,0.306-0.674,0.458-1.096,0.458c-0.438,0-0.809-0.152-1.109-0.458s-0.451-0.681-0.451-1.126
			c0-0.429,0.15-0.8,0.451-1.113s0.67-0.47,1.109-0.47c0.422,0,0.788,0.156,1.096,0.47s0.463,0.685,0.463,1.113
			C7.737,32.032,7.583,32.407,7.274,32.713z"/>
	</g>
</g>
</svg>
