<?xml version="1.0" encoding="utf-8"?>
<!-- Generator: Adobe Illustrator 15.0.0, SVG Export Plug-In  -->
<!DOCTYPE svg PUBLIC "-//W3C//DTD SVG 1.1//EN" "http://www.w3.org/Graphics/SVG/1.1/DTD/svg11.dtd" [
	<!ENTITY ns_flows "http://ns.adobe.com/Flows/1.0/">
]>
<svg version="1.1"
	 xmlns="http://www.w3.org/2000/svg" xmlns:xlink="http://www.w3.org/1999/xlink" xmlns:a="http://ns.adobe.com/AdobeSVGViewerExtensions/3.0/"
	 x="0px" y="0px" width="512px" height="512px" viewBox="-59.423 0 512 512" enable-background="new -59.423 0 512 512"
	 xml:space="preserve">
<defs>
</defs>
<path fill="#4D9DE0" d="M44.149,153.788v53.46h-3.557C18.204,207.248,0,225.452,0,247.84v223.568C0,493.797,18.204,512,40.592,512
	h311.971c22.388,0,40.592-18.203,40.592-40.592V247.735c0-22.388-18.204-40.592-40.592-40.592h-1.046v-53.46
	C351.517,68.943,282.573,0,197.833,0C113.092,0.104,44.149,69.048,44.149,153.788z M220.64,369.51
	c-3.139,2.303-3.976,4.499-3.976,8.161c0.104,16.425,0.104,32.745,0.104,49.17l0,0c0.314,6.801-3.139,13.496-9.207,16.53
	c-14.332,7.323-28.665-2.93-28.665-16.53v-0.104c0-16.425,0-32.85,0.104-49.275c0-3.348-0.732-5.545-3.662-7.741
	c-14.856-10.985-19.773-29.712-12.345-46.137c7.219-16.007,24.899-25.422,41.534-22.074c18.518,3.767,31.385,18.622,31.594,37.14
	C236.122,351.516,230.997,361.979,220.64,369.51z M111.418,153.788c0-47.706,38.813-86.414,86.415-86.414
	c47.705,0,86.414,38.813,86.414,86.414v53.46H111.418V153.788z"/>
</svg>
