<svg xmlns="http://www.w3.org/2000/svg" width="23" height="29" viewBox="0 0 23 29">
  <defs>
    <style>
      .cls-1, .cls-2 {
        fill: #fff;
      }

      .cls-1 {
        fill-rule: evenodd;
      }
    </style>
  </defs>
  <path id="Forma_1" data-name="Forma 1" class="cls-1" d="M3.249,17.976v1.118C3.249,23.16,5.922,29,9.747,29s6.5-2.84,6.5-6.906V16.641c2.386-.934,4.292-4.032,4.887-5.1,0.694-1.24,2.845-5.5,1.352-8.112a4.082,4.082,0,0,0-1.354-1.368A2.709,2.709,0,0,0,18.531,0a2.739,2.739,0,0,0-2.7,2.771,2.739,2.739,0,0,0,2.7,2.771,2.641,2.641,0,0,0,1.553-.509c0.231,0.684-.037,2.609-1.408,5.062-1.493,2.67-3.136,3.915-3.776,3.915-0.829,0-2.887-1.856-4.359-4.878C9.494,6.98,9.4,5.479,9.657,5.066a2.646,2.646,0,0,0,1.515.476,2.738,2.738,0,0,0,2.7-2.771A2.7,2.7,0,0,0,8.52,2.249,4.385,4.385,0,0,0,7.4,3.291c-1.5,2.05-.269,5.353.6,7.139,0.973,2,3.046,5.135,5.407,6.152V22.1c0,2.948-1.893,4-3.665,4s-3.663-4.05-3.663-7V17.935"/>
  <circle class="cls-2" cx="4" cy="14" r="4"/>
</svg>
