<?xml version="1.0" encoding="utf-8"?>
<!-- Generator: Adobe Illustrator 15.0.0, SVG Export Plug-In  -->
<!DOCTYPE svg PUBLIC "-//W3C//DTD SVG 1.1//EN" "http://www.w3.org/Graphics/SVG/1.1/DTD/svg11.dtd" [
	<!ENTITY ns_flows "http://ns.adobe.com/Flows/1.0/">
]>
<svg version="1.1"
	 xmlns="http://www.w3.org/2000/svg" xmlns:xlink="http://www.w3.org/1999/xlink" xmlns:a="http://ns.adobe.com/AdobeSVGViewerExtensions/3.0/"
	 x="0px" y="0px" width="34px" height="34px" viewBox="0 0 34 34" enable-background="new 0 0 34 34" xml:space="preserve">
<defs>
</defs>
<g>
	<g>
		<path fill="#C1C4C6" d="M15.146,19.143l-4.216-4.233L8.67,17.17l6.646,6.63l10.677-10.353l-2.618-2.686L15.146,19.143z M17,0
			C7.611,0,0,7.611,0,17s7.611,17,17,17s17-7.611,17-17S26.389,0,17,0z M17,30.923C9.311,30.923,3.077,24.689,3.077,17
			S9.311,3.077,17,3.077C24.686,3.086,30.913,9.314,30.923,17C30.923,24.689,24.689,30.923,17,30.923z"/>
	</g>
</g>
</svg>
