<?xml version="1.0" encoding="utf-8"?>
<!-- Generator: Adobe Illustrator 15.0.0, SVG Export Plug-In  -->
<!DOCTYPE svg PUBLIC "-//W3C//DTD SVG 1.1//EN" "http://www.w3.org/Graphics/SVG/1.1/DTD/svg11.dtd" [
	<!ENTITY ns_flows "http://ns.adobe.com/Flows/1.0/">
]>
<svg version="1.1"
	 xmlns="http://www.w3.org/2000/svg" xmlns:xlink="http://www.w3.org/1999/xlink" xmlns:a="http://ns.adobe.com/AdobeSVGViewerExtensions/3.0/"
	 x="0px" y="0px" width="22px" height="18px" viewBox="0 0 22 18" enable-background="new 0 0 22 18" xml:space="preserve">
<defs>
</defs>
<path fill="#4AC4D3" d="M22,2.131c-0.81,0.361-1.68,0.605-2.592,0.716c0.932-0.563,1.646-1.453,1.984-2.515
	c-0.873,0.521-1.838,0.899-2.867,1.104C17.703,0.552,16.529,0,15.231,0c-2.493,0-4.514,2.034-4.514,4.545
	c0,0.356,0.04,0.703,0.117,1.036c-3.751-0.19-7.077-2-9.303-4.749C1.143,1.503,0.92,2.283,0.92,3.116
	c0,1.577,0.797,2.969,2.008,3.783c-0.74-0.023-1.436-0.228-2.044-0.568c0,0.02,0,0.038,0,0.058c0,2.201,1.556,4.039,3.621,4.456
	c-0.379,0.104-0.778,0.16-1.189,0.16c-0.291,0-0.573-0.029-0.849-0.082c0.574,1.806,2.241,3.12,4.216,3.156
	c-1.544,1.22-3.491,1.946-5.605,1.946c-0.364,0-0.724-0.021-1.077-0.064c1.997,1.29,4.37,2.043,6.919,2.043
	c8.302,0,12.842-6.926,12.842-12.933c0-0.197-0.005-0.393-0.013-0.588C20.63,3.843,21.395,3.043,22,2.131z"/>
</svg>
