<?xml version="1.0" encoding="utf-8"?>
<!-- Generator: Adobe Illustrator 15.0.0, SVG Export Plug-In . SVG Version: 6.00 Build 0)  -->
<!DOCTYPE svg PUBLIC "-//W3C//DTD SVG 1.1//EN" "http://www.w3.org/Graphics/SVG/1.1/DTD/svg11.dtd">
<svg version="1.1" id="Layer_1" xmlns="http://www.w3.org/2000/svg" xmlns:xlink="http://www.w3.org/1999/xlink" x="0px" y="0px"
	 width="900px" height="1200px" viewBox="0 0 900 1200" enable-background="new 0 0 900 1200" xml:space="preserve">
<g>
	<g id="XMLID_26_">
		<g>
			<g>
				<path fill="#FFFFFF" d="M523.466,1050c-2.245,0-4.511-0.411-6.684-1.262c-7.044-2.755-11.679-9.544-11.679-17.107V811.225
					H73.469C32.958,811.225,0,778.266,0,737.755V223.469C0,182.958,32.958,150,73.469,150H826.53
					c40.512,0,73.47,32.958,73.47,73.469v514.286c0,40.511-32.958,73.47-73.47,73.47h-74.611l-214.953,232.866
					C533.421,1047.934,528.495,1050,523.466,1050z M73.469,186.735c-20.255,0-36.734,16.479-36.734,36.734v514.286
					c0,20.256,16.479,36.735,36.734,36.735h450c10.144,0,18.367,8.223,18.367,18.367v191.797l188.544-204.256
					c3.478-3.767,8.37-5.908,13.497-5.908h82.652c20.256,0,36.735-16.479,36.735-36.735V223.469
					c0-20.255-16.479-36.734-36.735-36.734H73.469z"/>
			</g>
			<path fill="#FFFFFF" d="M396.563,644.372l33.408-15.272L283.032,307.671c-3.023-6.61-9.612-10.78-16.924-10.73
				c-7.268,0.086-13.799,4.451-16.663,11.131L111.69,629.5l33.765,14.47l50.33-117.439H342.69L396.563,644.372z M211.529,489.796
				l55.339-129.126l59.029,129.126H211.529z"/>
		</g>
	</g>
</g>
<text transform="matrix(1 0 0 1 509.5 632.5)" fill="#FFFFFF" font-family="'Kalinga'" font-size="504">x</text>
</svg>
