<?xml version="1.0" encoding="utf-8"?>
<!-- Generator: Adobe Illustrator 15.0.0, SVG Export Plug-In  -->
<!DOCTYPE svg PUBLIC "-//W3C//DTD SVG 1.1//EN" "http://www.w3.org/Graphics/SVG/1.1/DTD/svg11.dtd" [
	<!ENTITY ns_flows "http://ns.adobe.com/Flows/1.0/">
]>
<svg version="1.1"
	 xmlns="http://www.w3.org/2000/svg" xmlns:xlink="http://www.w3.org/1999/xlink" xmlns:a="http://ns.adobe.com/AdobeSVGViewerExtensions/3.0/"
	 x="0px" y="0px" width="73px" height="69px" viewBox="0 0 73 69" enable-background="new 0 0 73 69" xml:space="preserve">
<defs>
</defs>
<path fill-rule="evenodd" clip-rule="evenodd" fill="#EBEFF1" d="M36.641,68.989c-0.029,0-0.063,0-0.092,0
	c-14.478,0-22.074,0-36.549,0c1.073-6.236-1.418-9.922,5.211-12.042c4.309-1.381,8.548-2.974,12.737-4.629
	c1.191-0.464,2.08-1.494,3.156-2.214c0.48-0.318,1.054-0.611,1.624-0.691c1.947-0.266,2.804-0.861,3.268-2.521
	c0.604-2.188,1.033-4.363,0.509-6.629c-0.232-0.992-0.646-1.624-1.759-1.989c-2.308-0.788-8.006-1.655-10.29-2.491
	c-1.699-0.628-1.808-1.146-1.191-2.673c1.966-4.812,3.418-9.715,3.898-14.861c0.039-0.435,0.136-0.865,0.221-1.3
	c0.792-3.014,1.828-5.432,2.953-7.38C23.271,3.945,28.492,0,36.196,0c11.048,0,16.446,7.299,18.405,16.846
	c0.004,0.021,0.004,0.041,0.008,0.062c2.098,5.586,3.763,12.403,5.309,16.201c0.615,1.527,0.506,2.045-1.192,2.673
	c-2.281,0.836-7.981,1.703-10.289,2.491c-1.112,0.366-1.528,0.999-1.755,1.989c-0.526,2.266-0.096,4.441,0.508,6.629
	c0.46,1.66,1.322,2.256,3.264,2.521c0.57,0.08,1.15,0.373,1.627,0.691c1.076,0.72,1.965,1.75,3.16,2.214
	c4.191,1.655,8.422,3.248,12.733,4.629c6.626,2.12,4.137,5.806,5.21,12.042C58.708,68.989,51.113,68.989,36.641,68.989z"/>
</svg>
